<svg width="240" height="42" viewBox="0 0 240 42" fill="none" xmlns="http://www.w3.org/2000/svg">
<path d="M52.6738 7.42045C52.5829 6.50379 52.1927 5.79167 51.5033 5.28409C50.8139 4.77651 49.8783 4.52273 48.6965 4.52273C47.8935 4.52273 47.2154 4.63636 46.6624 4.86364C46.1094 5.08333 45.6851 5.39015 45.3897 5.78409C45.1018 6.17803 44.9578 6.625 44.9578 7.125C44.9427 7.54167 45.0298 7.9053 45.2192 8.21591C45.4162 8.52652 45.6851 8.79545 46.026 9.02273C46.3669 9.24242 46.7609 9.43561 47.2078 9.60227C47.6548 9.76136 48.1321 9.89773 48.6397 10.0114L50.7306 10.5114C51.7457 10.7386 52.6775 11.0417 53.526 11.4205C54.3745 11.7992 55.1094 12.2652 55.7306 12.8182C56.3518 13.3712 56.8329 14.0227 57.1738 14.7727C57.5222 15.5227 57.7003 16.3826 57.7078 17.3523C57.7003 18.7765 57.3366 20.0114 56.6169 21.0568C55.9048 22.0947 54.8745 22.9015 53.526 23.4773C52.1851 24.0455 50.5677 24.3295 48.6738 24.3295C46.795 24.3295 45.1586 24.0417 43.7647 23.4659C42.3783 22.8902 41.295 22.0379 40.5147 20.9091C39.7419 19.7727 39.3366 18.3674 39.2988 16.6932H44.0601C44.1132 17.4735 44.3366 18.125 44.7306 18.6477C45.1321 19.1629 45.6662 19.553 46.3328 19.8182C47.0071 20.0758 47.7685 20.2045 48.6169 20.2045C49.4503 20.2045 50.1738 20.0833 50.7874 19.8409C51.4086 19.5985 51.8897 19.2614 52.2306 18.8295C52.5715 18.3977 52.7419 17.9015 52.7419 17.3409C52.7419 16.8182 52.5866 16.3788 52.276 16.0227C51.973 15.6667 51.526 15.3636 50.9351 15.1136C50.3518 14.8636 49.6359 14.6364 48.7874 14.4318L46.2533 13.7955C44.2912 13.3182 42.7419 12.572 41.6056 11.5568C40.4692 10.5417 39.9048 9.17424 39.9124 7.45454C39.9048 6.04545 40.2798 4.81439 41.0374 3.76136C41.8025 2.70833 42.8518 1.88636 44.1851 1.29545C45.5185 0.704545 47.0336 0.40909 48.7306 0.40909C50.4579 0.40909 51.9654 0.704545 53.2533 1.29545C54.5488 1.88636 55.5563 2.70833 56.276 3.76136C56.9957 4.81439 57.3669 6.03409 57.3897 7.42045H52.6738ZM66.0976 24H60.8249L68.859 0.727272H75.1999L83.2226 24H77.9499L72.1204 6.04545H71.9385L66.0976 24ZM65.7681 14.8523H78.2226V18.6932H65.7681V14.8523ZM87.6238 24V0.727272H96.8056C98.5707 0.727272 100.075 1.06439 101.317 1.73864C102.559 2.4053 103.506 3.33333 104.158 4.52273C104.817 5.70454 105.146 7.06818 105.146 8.61364C105.146 10.1591 104.813 11.5227 104.146 12.7045C103.48 13.8864 102.514 14.8068 101.249 15.4659C99.9912 16.125 98.4685 16.4545 96.6806 16.4545H90.8283V12.5114H95.8851C96.8321 12.5114 97.6124 12.3485 98.226 12.0227C98.8472 11.6894 99.3094 11.2311 99.6124 10.6477C99.923 10.0568 100.078 9.37879 100.078 8.61364C100.078 7.84091 99.923 7.16667 99.6124 6.59091C99.3094 6.00757 98.8472 5.55682 98.226 5.23864C97.6048 4.91288 96.8169 4.75 95.8624 4.75H92.5442V24H87.6238ZM109.943 24V0.727272H119.124C120.889 0.727272 122.393 1.06439 123.636 1.73864C124.878 2.4053 125.825 3.33333 126.477 4.52273C127.136 5.70454 127.465 7.06818 127.465 8.61364C127.465 10.1591 127.132 11.5227 126.465 12.7045C125.799 13.8864 124.833 14.8068 123.568 15.4659C122.31 16.125 120.787 16.4545 118.999 16.4545H113.147V12.5114H118.204C119.151 12.5114 119.931 12.3485 120.545 12.0227C121.166 11.6894 121.628 11.2311 121.931 10.6477C122.242 10.0568 122.397 9.37879 122.397 8.61364C122.397 7.84091 122.242 7.16667 121.931 6.59091C121.628 6.00757 121.166 5.55682 120.545 5.23864C119.924 4.91288 119.136 4.75 118.181 4.75H114.863V24H109.943ZM132.261 24V0.727272H147.943V4.78409H137.182V10.3295H147.136V14.3864H137.182V19.9432H147.989V24H132.261ZM158.694 24L152.035 0.727272H157.41L161.262 16.8977H161.455L165.705 0.727272H170.307L174.546 16.9318H174.75L178.603 0.727272H183.978L177.319 24H172.523L168.091 8.78409H167.91L163.489 24H158.694ZM189.879 24H184.606L192.64 0.727272H198.981L207.004 24H201.731L195.902 6.04545H195.72L189.879 24ZM189.549 14.8523H202.004V18.6932H189.549V14.8523ZM211.405 24V0.727272H216.325V19.9432H226.303V24H211.405ZM236.082 0.727272V24H231.161V0.727272H236.082ZM42.2022 39L43.634 30.2727H44.4863L43.0544 39H42.2022ZM38.2306 36.5795L38.3669 35.7273H44.8783L44.7419 36.5795H38.2306ZM39.134 39L40.5658 30.2727H41.4181L39.9863 39H39.134ZM38.7419 33.5455L38.8783 32.6932H45.3897L45.2533 33.5455H38.7419ZM47.2532 39V30.2727H48.31V34.1591H52.9634V30.2727H54.0202V39H52.9634V35.0966H48.31V39H47.2532ZM58.5257 39.1534C58.111 39.1534 57.7346 39.0753 57.3965 38.919C57.0584 38.7599 56.79 38.5312 56.5911 38.233C56.3922 37.9318 56.2928 37.5682 56.2928 37.142C56.2928 36.767 56.3667 36.4631 56.5144 36.2301C56.6621 35.9943 56.8596 35.8097 57.1067 35.6761C57.3539 35.5426 57.6266 35.4432 57.9249 35.3778C58.226 35.3097 58.5286 35.2557 58.8326 35.2159C59.2303 35.1648 59.5527 35.1264 59.7999 35.1009C60.0499 35.0724 60.2317 35.0256 60.3454 34.9602C60.4618 34.8949 60.5201 34.7812 60.5201 34.6193V34.5852C60.5201 34.1648 60.405 33.8381 60.1749 33.6051C59.9476 33.3722 59.6025 33.2557 59.1394 33.2557C58.6593 33.2557 58.2829 33.3608 58.0101 33.571C57.7374 33.7812 57.5456 34.0057 57.4348 34.2443L56.4803 33.9034C56.6507 33.5057 56.878 33.196 57.1621 32.9744C57.449 32.75 57.7615 32.5937 58.0996 32.5057C58.4405 32.4148 58.7757 32.3693 59.1053 32.3693C59.3155 32.3693 59.557 32.3949 59.8297 32.446C60.1053 32.4943 60.3709 32.5952 60.6266 32.7486C60.8851 32.902 61.0996 33.1335 61.2701 33.4432C61.4405 33.7528 61.5257 34.1676 61.5257 34.6875V39H60.5201V38.1136H60.4689C60.4007 38.2557 60.2871 38.4077 60.128 38.5696C59.9689 38.7315 59.7573 38.8693 59.4931 38.983C59.2289 39.0966 58.9064 39.1534 58.5257 39.1534ZM58.6792 38.25C59.0769 38.25 59.4121 38.1719 59.6848 38.0156C59.9604 37.8594 60.1678 37.6577 60.307 37.4105C60.449 37.1634 60.5201 36.9034 60.5201 36.6307V35.7102C60.4775 35.7614 60.3837 35.8082 60.2388 35.8509C60.0968 35.8906 59.932 35.9261 59.7445 35.9574C59.5598 35.9858 59.3794 36.0114 59.2033 36.0341C59.03 36.054 58.8894 36.071 58.7814 36.0852C58.5201 36.1193 58.2757 36.1747 58.0485 36.2514C57.824 36.3253 57.6422 36.4375 57.503 36.5881C57.3667 36.7358 57.2985 36.9375 57.2985 37.1932C57.2985 37.5426 57.4277 37.8068 57.6863 37.9858C57.9476 38.1619 58.2786 38.25 58.6792 38.25ZM63.9613 41.4545V32.4545H64.9329V33.4943H65.0522C65.1261 33.3807 65.2284 33.2358 65.3591 33.0597C65.4926 32.8807 65.6829 32.7216 65.9301 32.5824C66.1801 32.4403 66.5181 32.3693 66.9443 32.3693C67.4954 32.3693 67.9812 32.5071 68.4017 32.7827C68.8221 33.0582 69.1502 33.4489 69.386 33.9545C69.6218 34.4602 69.7397 35.0568 69.7397 35.7443C69.7397 36.4375 69.6218 37.0384 69.386 37.5469C69.1502 38.0526 68.8235 38.4446 68.4059 38.723C67.9883 38.9986 67.5068 39.1364 66.9613 39.1364C66.5409 39.1364 66.2042 39.0668 65.9514 38.9276C65.6985 38.7855 65.5039 38.625 65.3676 38.446C65.2312 38.2642 65.1261 38.1136 65.0522 37.9943H64.967V41.4545H63.9613ZM64.95 35.7273C64.95 36.2216 65.0224 36.6577 65.1673 37.0355C65.3122 37.4105 65.5238 37.7045 65.8022 37.9176C66.0806 38.1278 66.4216 38.233 66.825 38.233C67.2454 38.233 67.5963 38.1222 67.8775 37.9006C68.1616 37.6761 68.3747 37.375 68.5167 36.9972C68.6616 36.6165 68.7341 36.1932 68.7341 35.7273C68.7341 35.267 68.663 34.8523 68.521 34.483C68.3818 34.1108 68.1701 33.8168 67.886 33.6009C67.6048 33.3821 67.2511 33.2727 66.825 33.2727C66.4159 33.2727 66.0721 33.3764 65.7937 33.5838C65.5153 33.7884 65.3051 34.0753 65.163 34.4446C65.021 34.8111 64.95 35.2386 64.95 35.7273ZM71.8738 41.4545V32.4545H72.8454V33.4943H72.9647C73.0386 33.3807 73.1409 33.2358 73.2716 33.0597C73.4051 32.8807 73.5954 32.7216 73.8426 32.5824C74.0926 32.4403 74.4306 32.3693 74.8568 32.3693C75.4079 32.3693 75.8937 32.5071 76.3142 32.7827C76.7346 33.0582 77.0628 33.4489 77.2985 33.9545C77.5343 34.4602 77.6522 35.0568 77.6522 35.7443C77.6522 36.4375 77.5343 37.0384 77.2985 37.5469C77.0628 38.0526 76.736 38.4446 76.3184 38.723C75.9008 38.9986 75.4193 39.1364 74.8738 39.1364C74.4534 39.1364 74.1167 39.0668 73.8639 38.9276C73.611 38.7855 73.4164 38.625 73.2801 38.446C73.1437 38.2642 73.0386 38.1136 72.9647 37.9943H72.8795V41.4545H71.8738ZM72.8625 35.7273C72.8625 36.2216 72.9349 36.6577 73.0798 37.0355C73.2247 37.4105 73.4363 37.7045 73.7147 37.9176C73.9931 38.1278 74.3341 38.233 74.7375 38.233C75.1579 38.233 75.5088 38.1222 75.79 37.9006C76.0741 37.6761 76.2872 37.375 76.4292 36.9972C76.5741 36.6165 76.6466 36.1932 76.6466 35.7273C76.6466 35.267 76.5755 34.8523 76.4335 34.483C76.2943 34.1108 76.0826 33.8168 75.7985 33.6009C75.5173 33.3821 75.1636 33.2727 74.7375 33.2727C74.3284 33.2727 73.9846 33.3764 73.7062 33.5838C73.4278 33.7884 73.2176 34.0753 73.0755 34.4446C72.9335 34.8111 72.8625 35.2386 72.8625 35.7273ZM80.1997 41.4545C80.0292 41.4545 79.8772 41.4403 79.7437 41.4119C79.6102 41.3864 79.5179 41.3608 79.4667 41.3352L79.7224 40.4489C79.9667 40.5114 80.1826 40.5341 80.3701 40.517C80.5576 40.5 80.7238 40.4162 80.8687 40.2656C81.0164 40.1179 81.1514 39.8778 81.2735 39.5455L81.461 39.0341L79.0406 32.4545H80.1315L81.9383 37.6705H82.0065L83.8133 32.4545H84.9042L82.1258 39.9545C82.0008 40.2926 81.846 40.5724 81.6613 40.794C81.4767 41.0185 81.2622 41.1847 81.0179 41.2926C80.7764 41.4006 80.5037 41.4545 80.1997 41.4545ZM86.968 39V30.2727H92.235V31.2102H88.0248V34.1591H91.9623V35.0966H88.0248V38.0625H92.3032V39H86.968ZM99.9558 32.4545L97.5353 39H96.5126L94.0922 32.4545H95.1831L96.9899 37.6705H97.0581L98.8649 32.4545H99.9558ZM104.393 39.1364C103.762 39.1364 103.218 38.9972 102.761 38.7188C102.306 38.4375 101.956 38.0455 101.708 37.5426C101.464 37.0369 101.342 36.4489 101.342 35.7784C101.342 35.108 101.464 34.517 101.708 34.0057C101.956 33.4915 102.299 33.0909 102.74 32.804C103.183 32.5142 103.7 32.3693 104.291 32.3693C104.632 32.3693 104.968 32.4261 105.301 32.5398C105.633 32.6534 105.936 32.8381 106.208 33.0938C106.481 33.3466 106.699 33.6818 106.86 34.0994C107.022 34.517 107.103 35.0312 107.103 35.642V36.0682H102.058V35.1989H106.081C106.081 34.8295 106.007 34.5 105.859 34.2102C105.714 33.9205 105.507 33.6918 105.237 33.5241C104.97 33.3565 104.655 33.2727 104.291 33.2727C103.89 33.2727 103.544 33.3722 103.251 33.571C102.961 33.767 102.738 34.0227 102.582 34.3381C102.426 34.6534 102.348 34.9915 102.348 35.3523V35.9318C102.348 36.4261 102.433 36.8452 102.603 37.1889C102.777 37.5298 103.017 37.7898 103.324 37.9688C103.63 38.1449 103.987 38.233 104.393 38.233C104.657 38.233 104.896 38.196 105.109 38.1222C105.325 38.0455 105.511 37.9318 105.667 37.7812C105.824 37.6278 105.944 37.4375 106.03 37.2102L107.001 37.483C106.899 37.8125 106.727 38.1023 106.485 38.3523C106.244 38.5994 105.946 38.7926 105.591 38.9318C105.235 39.0682 104.836 39.1364 104.393 39.1364ZM109.233 39V32.4545H110.205V33.4432H110.273C110.392 33.1193 110.608 32.8565 110.921 32.6548C111.233 32.4531 111.585 32.3523 111.978 32.3523C112.051 32.3523 112.144 32.3537 112.255 32.3565C112.365 32.3594 112.449 32.3636 112.506 32.3693V33.392C112.472 33.3835 112.394 33.3707 112.272 33.3537C112.152 33.3338 112.026 33.3239 111.892 33.3239C111.574 33.3239 111.29 33.3906 111.04 33.5241C110.793 33.6548 110.597 33.8366 110.452 34.0696C110.31 34.2997 110.239 34.5625 110.239 34.858V39H109.233ZM114.312 39H113.204L116.408 30.2727H117.499L120.704 39H119.596L116.988 31.6534H116.92L114.312 39ZM114.721 35.5909H119.187V36.5284H114.721V35.5909ZM125.442 32.4545V33.3068H121.913V32.4545H125.442ZM122.97 39V31.5511C122.97 31.1761 123.058 30.8636 123.234 30.6136C123.41 30.3636 123.639 30.1761 123.92 30.0511C124.202 29.9261 124.499 29.8636 124.811 29.8636C125.058 29.8636 125.26 29.8835 125.416 29.9233C125.572 29.9631 125.689 30 125.766 30.0341L125.476 30.9034C125.425 30.8864 125.354 30.8651 125.263 30.8395C125.175 30.8139 125.058 30.8011 124.913 30.8011C124.581 30.8011 124.341 30.8849 124.193 31.0526C124.048 31.2202 123.976 31.4659 123.976 31.7898V39H122.97ZM130.298 32.4545V33.3068H126.906V32.4545H130.298ZM127.894 30.8864H128.9V37.125C128.9 37.4091 128.941 37.6222 129.024 37.7642C129.109 37.9034 129.217 37.9972 129.347 38.0455C129.481 38.0909 129.622 38.1136 129.769 38.1136C129.88 38.1136 129.971 38.108 130.042 38.0966C130.113 38.0824 130.17 38.071 130.213 38.0625L130.417 38.9659C130.349 38.9915 130.254 39.017 130.132 39.0426C130.009 39.071 129.855 39.0852 129.667 39.0852C129.383 39.0852 129.105 39.0241 128.832 38.902C128.562 38.7798 128.338 38.5938 128.159 38.3438C127.982 38.0938 127.894 37.7784 127.894 37.3977V30.8864ZM135.085 39.1364C134.454 39.1364 133.91 38.9972 133.452 38.7188C132.998 38.4375 132.647 38.0455 132.4 37.5426C132.156 37.0369 132.033 36.4489 132.033 35.7784C132.033 35.108 132.156 34.517 132.4 34.0057C132.647 33.4915 132.991 33.0909 133.431 32.804C133.874 32.5142 134.391 32.3693 134.982 32.3693C135.323 32.3693 135.66 32.4261 135.992 32.5398C136.325 32.6534 136.627 32.8381 136.9 33.0938C137.173 33.3466 137.39 33.6818 137.552 34.0994C137.714 34.517 137.795 35.0312 137.795 35.642V36.0682H132.749V35.1989H136.772C136.772 34.8295 136.698 34.5 136.55 34.2102C136.406 33.9205 136.198 33.6918 135.928 33.5241C135.661 33.3565 135.346 33.2727 134.982 33.2727C134.582 33.2727 134.235 33.3722 133.943 33.571C133.653 33.767 133.43 34.0227 133.273 34.3381C133.117 34.6534 133.039 34.9915 133.039 35.3523V35.9318C133.039 36.4261 133.124 36.8452 133.295 37.1889C133.468 37.5298 133.708 37.7898 134.015 37.9688C134.322 38.1449 134.678 38.233 135.085 38.233C135.349 38.233 135.587 38.196 135.8 38.1222C136.016 38.0455 136.202 37.9318 136.359 37.7812C136.515 37.6278 136.636 37.4375 136.721 37.2102L137.693 37.483C137.59 37.8125 137.418 38.1023 137.177 38.3523C136.935 38.5994 136.637 38.7926 136.282 38.9318C135.927 39.0682 135.528 39.1364 135.085 39.1364ZM139.925 39V32.4545H140.896V33.4432H140.964C141.084 33.1193 141.3 32.8565 141.612 32.6548C141.925 32.4531 142.277 32.3523 142.669 32.3523C142.743 32.3523 142.835 32.3537 142.946 32.3565C143.057 32.3594 143.141 32.3636 143.197 32.3693V33.392C143.163 33.3835 143.085 33.3707 142.963 33.3537C142.844 33.3338 142.717 33.3239 142.584 33.3239C142.266 33.3239 141.981 33.3906 141.731 33.5241C141.484 33.6548 141.288 33.8366 141.143 34.0696C141.001 34.2997 140.93 34.5625 140.93 34.858V39H139.925Z" fill="#DF171F"/>
<path d="M11.1521 11.7739C11.1521 10.0756 12.5896 9.42062 14.8926 9.42062C18.2468 9.42062 22.5051 10.4335 25.8592 12.2156V1.9877C22.2037 0.54833 18.5559 0 14.9004 0C5.9586 0 0 4.59988 0 12.2917C0 24.3169 16.7552 22.3673 16.7552 27.5536C16.7552 29.5641 14.9854 30.2115 12.5277 30.2115C8.87993 30.2115 4.16561 28.7264 0.463704 26.7463V36.5325C4.27138 38.1512 8.37312 38.9907 12.52 39C21.6859 39 28 35.116 28 27.3023C28 14.3404 11.1521 16.6632 11.1521 11.7739Z" fill="#DF171F"/>
</svg>
