<svg width="194" height="45" viewBox="0 0 194 45" fill="none" xmlns="http://www.w3.org/2000/svg">
<path d="M10.138 23.224C8.49537 23.224 7.02337 22.9573 5.72203 22.424C4.4207 21.8907 3.37537 21.1013 2.58603 20.056C1.81803 19.0107 1.4127 17.752 1.37003 16.28H7.19403C7.27937 17.112 7.56737 17.752 8.05803 18.2C8.5487 18.6267 9.1887 18.84 9.97803 18.84C10.7887 18.84 11.4287 18.6587 11.898 18.296C12.3674 17.912 12.602 17.3893 12.602 16.728C12.602 16.1733 12.41 15.7147 12.026 15.352C11.6634 14.9893 11.2047 14.6907 10.65 14.456C10.1167 14.2213 9.3487 13.9547 8.34603 13.656C6.89537 13.208 5.71136 12.76 4.79403 12.312C3.8767 11.864 3.08736 11.2027 2.42603 10.328C1.7647 9.45333 1.43403 8.312 1.43403 6.904C1.43403 4.81333 2.19136 3.18133 3.70603 2.008C5.2207 0.813333 7.19403 0.216 9.62603 0.216C12.1007 0.216 14.0954 0.813333 15.61 2.008C17.1247 3.18133 17.9354 4.824 18.042 6.936H12.122C12.0794 6.21067 11.8127 5.64533 11.322 5.24C10.8314 4.81333 10.202 4.6 9.43403 4.6C8.7727 4.6 8.23937 4.78133 7.83403 5.144C7.4287 5.48533 7.22603 5.98667 7.22603 6.648C7.22603 7.37333 7.56737 7.93867 8.25003 8.344C8.9327 8.74933 9.99937 9.18667 11.45 9.656C12.9007 10.1467 14.074 10.616 14.97 11.064C15.8874 11.512 16.6767 12.1627 17.338 13.016C17.9994 13.8693 18.33 14.968 18.33 16.312C18.33 17.592 17.9994 18.7547 17.338 19.8C16.698 20.8453 15.7594 21.6773 14.522 22.296C13.2847 22.9147 11.8234 23.224 10.138 23.224ZM37.2815 19.032H28.8975L27.5535 23H21.8255L29.9535 0.535999H36.2895L44.4175 23H38.6255L37.2815 19.032ZM35.8735 14.808L33.0895 6.584L30.3375 14.808H35.8735ZM65.6113 7.768C65.6113 9.06933 65.3126 10.264 64.7153 11.352C64.1179 12.4187 63.2006 13.2827 61.9633 13.944C60.7259 14.6053 59.1899 14.936 57.3553 14.936H53.9633V23H48.4913V0.535999H57.3553C59.1473 0.535999 60.6619 0.845332 61.8993 1.464C63.1366 2.08267 64.0646 2.936 64.6833 4.024C65.3019 5.112 65.6113 6.36 65.6113 7.768ZM56.9393 10.584C57.9846 10.584 58.7633 10.3387 59.2753 9.848C59.7873 9.35733 60.0433 8.664 60.0433 7.768C60.0433 6.872 59.7873 6.17867 59.2753 5.688C58.7633 5.19733 57.9846 4.952 56.9393 4.952H53.9633V10.584H56.9393ZM87.18 7.768C87.18 9.06933 86.8814 10.264 86.284 11.352C85.6867 12.4187 84.7694 13.2827 83.532 13.944C82.2947 14.6053 80.7587 14.936 78.924 14.936H75.532V23H70.06V0.535999H78.924C80.716 0.535999 82.2307 0.845332 83.468 1.464C84.7054 2.08267 85.6334 2.936 86.252 4.024C86.8707 5.112 87.18 6.36 87.18 7.768ZM78.508 10.584C79.5534 10.584 80.332 10.3387 80.844 9.848C81.356 9.35733 81.612 8.664 81.612 7.768C81.612 6.872 81.356 6.17867 80.844 5.688C80.332 5.19733 79.5534 4.952 78.508 4.952H75.532V10.584H78.508ZM97.1008 4.92V9.464H104.429V13.688H97.1008V18.616H105.389V23H91.6288V0.535999H105.389V4.92H97.1008ZM141.453 0.535999L135.597 23H128.973L125.389 8.216L121.677 23H115.053L109.357 0.535999H115.213L118.445 16.888L122.445 0.535999H128.461L132.301 16.888L135.565 0.535999H141.453ZM159.782 19.032H151.398L150.054 23H144.326L152.454 0.535999H158.79L166.918 23H161.126L159.782 19.032ZM158.374 14.808L155.59 6.584L152.838 14.808H158.374ZM176.463 18.776H183.631V23H170.991V0.535999H176.463V18.776ZM193.313 0.535999V23H187.841V0.535999H193.313ZM8.60603 35.744L8.27003 37.316H9.71003V39.164H7.87403L7.47803 41H5.55803L5.95403 39.164H3.96203L3.56603 41H1.64603L2.04203 39.164H0.266032V37.316H2.43803L2.77403 35.744H1.03403V33.896H3.15803L3.54203 32.12H5.46203L5.07803 33.896H7.07003L7.45403 32.12H9.37403L8.99003 33.896H10.478V35.744H8.60603ZM6.68603 35.744H4.69403L4.35803 37.316H6.35003L6.68603 35.744ZM19.5176 32.576V41H17.4656V37.532H14.2736V41H12.2216V32.576H14.2736V35.876H17.4656V32.576H19.5176ZM21.1909 37.64C21.1909 36.952 21.3189 36.348 21.5749 35.828C21.8389 35.308 22.1949 34.908 22.6429 34.628C23.0909 34.348 23.5909 34.208 24.1429 34.208C24.6149 34.208 25.0269 34.304 25.3789 34.496C25.7389 34.688 26.0149 34.94 26.2069 35.252V34.304H28.2589V41H26.2069V40.052C26.0069 40.364 25.7269 40.616 25.3669 40.808C25.0149 41 24.6029 41.096 24.1309 41.096C23.5869 41.096 23.0909 40.956 22.6429 40.676C22.1949 40.388 21.8389 39.984 21.5749 39.464C21.3189 38.936 21.1909 38.328 21.1909 37.64ZM26.2069 37.652C26.2069 37.14 26.0629 36.736 25.7749 36.44C25.4949 36.144 25.1509 35.996 24.7429 35.996C24.3349 35.996 23.9869 36.144 23.6989 36.44C23.4189 36.728 23.2789 37.128 23.2789 37.64C23.2789 38.152 23.4189 38.56 23.6989 38.864C23.9869 39.16 24.3349 39.308 24.7429 39.308C25.1509 39.308 25.4949 39.16 25.7749 38.864C26.0629 38.568 26.2069 38.164 26.2069 37.652ZM32.3955 35.252C32.5955 34.94 32.8715 34.688 33.2235 34.496C33.5755 34.304 33.9875 34.208 34.4595 34.208C35.0115 34.208 35.5115 34.348 35.9595 34.628C36.4075 34.908 36.7595 35.308 37.0155 35.828C37.2795 36.348 37.4115 36.952 37.4115 37.64C37.4115 38.328 37.2795 38.936 37.0155 39.464C36.7595 39.984 36.4075 40.388 35.9595 40.676C35.5115 40.956 35.0115 41.096 34.4595 41.096C33.9955 41.096 33.5835 41 33.2235 40.808C32.8715 40.616 32.5955 40.368 32.3955 40.064V44.192H30.3435V34.304H32.3955V35.252ZM35.3235 37.64C35.3235 37.128 35.1795 36.728 34.8915 36.44C34.6115 36.144 34.2635 35.996 33.8475 35.996C33.4395 35.996 33.0915 36.144 32.8035 36.44C32.5235 36.736 32.3835 37.14 32.3835 37.652C32.3835 38.164 32.5235 38.568 32.8035 38.864C33.0915 39.16 33.4395 39.308 33.8475 39.308C34.2555 39.308 34.6035 39.16 34.8915 38.864C35.1795 38.56 35.3235 38.152 35.3235 37.64ZM41.14 35.252C41.34 34.94 41.616 34.688 41.968 34.496C42.32 34.304 42.732 34.208 43.204 34.208C43.756 34.208 44.256 34.348 44.704 34.628C45.152 34.908 45.504 35.308 45.76 35.828C46.024 36.348 46.156 36.952 46.156 37.64C46.156 38.328 46.024 38.936 45.76 39.464C45.504 39.984 45.152 40.388 44.704 40.676C44.256 40.956 43.756 41.096 43.204 41.096C42.74 41.096 42.328 41 41.968 40.808C41.616 40.616 41.34 40.368 41.14 40.064V44.192H39.088V34.304H41.14V35.252ZM44.068 37.64C44.068 37.128 43.924 36.728 43.636 36.44C43.356 36.144 43.008 35.996 42.592 35.996C42.184 35.996 41.836 36.144 41.548 36.44C41.268 36.736 41.128 37.14 41.128 37.652C41.128 38.164 41.268 38.568 41.548 38.864C41.836 39.16 42.184 39.308 42.592 39.308C43 39.308 43.348 39.16 43.636 38.864C43.924 38.56 44.068 38.152 44.068 37.64ZM54.6725 34.304L50.4725 44.18H48.2645L49.8005 40.772L47.0765 34.304H49.3685L50.9165 38.492L52.4525 34.304H54.6725ZM58.0666 34.22V35.924H60.8146V37.508H58.0666V39.356H61.1746V41H56.0146V32.576H61.1746V34.22H58.0666ZM66.1188 39.08L67.5708 34.304H69.7548L67.3788 41H64.8468L62.4708 34.304H64.6668L66.1188 39.08ZM77.5305 37.544C77.5305 37.736 77.5185 37.936 77.4945 38.144H72.8505C72.8825 38.56 73.0145 38.88 73.2465 39.104C73.4865 39.32 73.7785 39.428 74.1225 39.428C74.6345 39.428 74.9905 39.212 75.1905 38.78H77.3745C77.2625 39.22 77.0585 39.616 76.7625 39.968C76.4745 40.32 76.1105 40.596 75.6705 40.796C75.2305 40.996 74.7385 41.096 74.1945 41.096C73.5385 41.096 72.9545 40.956 72.4425 40.676C71.9305 40.396 71.5305 39.996 71.2425 39.476C70.9545 38.956 70.8105 38.348 70.8105 37.652C70.8105 36.956 70.9505 36.348 71.2305 35.828C71.5185 35.308 71.9185 34.908 72.4305 34.628C72.9425 34.348 73.5305 34.208 74.1945 34.208C74.8425 34.208 75.4185 34.344 75.9225 34.616C76.4265 34.888 76.8185 35.276 77.0985 35.78C77.3865 36.284 77.5305 36.872 77.5305 37.544ZM75.4305 37.004C75.4305 36.652 75.3105 36.372 75.0705 36.164C74.8305 35.956 74.5305 35.852 74.1705 35.852C73.8265 35.852 73.5345 35.952 73.2945 36.152C73.0625 36.352 72.9185 36.636 72.8625 37.004H75.4305ZM81.265 35.42C81.505 35.052 81.805 34.764 82.165 34.556C82.525 34.34 82.925 34.232 83.365 34.232V36.404H82.801C82.289 36.404 81.905 36.516 81.649 36.74C81.393 36.956 81.265 37.34 81.265 37.892V41H79.213V34.304H81.265V35.42ZM90.1898 39.512H87.0458L86.5418 41H84.3938L87.4418 32.576H89.8178L92.8658 41H90.6938L90.1898 39.512ZM89.6618 37.928L88.6178 34.844L87.5858 37.928H89.6618ZM97.7535 36.008H96.6495V41H94.5975V36.008H93.8535V34.304H94.5975V34.112C94.5975 33.288 94.8335 32.664 95.3055 32.24C95.7775 31.808 96.4695 31.592 97.3815 31.592C97.5335 31.592 97.6455 31.596 97.7175 31.604V33.344C97.3255 33.32 97.0495 33.376 96.8895 33.512C96.7295 33.648 96.6495 33.892 96.6495 34.244V34.304H97.7535V36.008ZM103.05 39.26V41H102.006C101.262 41 100.682 40.82 100.266 40.46C99.8497 40.092 99.6417 39.496 99.6417 38.672V36.008H98.8257V34.304H99.6417V32.672H101.694V34.304H103.038V36.008H101.694V38.696C101.694 38.896 101.742 39.04 101.838 39.128C101.934 39.216 102.094 39.26 102.318 39.26H103.05ZM111.105 37.544C111.105 37.736 111.093 37.936 111.069 38.144H106.425C106.457 38.56 106.589 38.88 106.821 39.104C107.061 39.32 107.353 39.428 107.697 39.428C108.209 39.428 108.565 39.212 108.765 38.78H110.949C110.837 39.22 110.633 39.616 110.337 39.968C110.049 40.32 109.685 40.596 109.245 40.796C108.805 40.996 108.313 41.096 107.769 41.096C107.113 41.096 106.529 40.956 106.017 40.676C105.505 40.396 105.105 39.996 104.817 39.476C104.529 38.956 104.385 38.348 104.385 37.652C104.385 36.956 104.525 36.348 104.805 35.828C105.093 35.308 105.493 34.908 106.005 34.628C106.517 34.348 107.105 34.208 107.769 34.208C108.417 34.208 108.993 34.344 109.497 34.616C110.001 34.888 110.393 35.276 110.673 35.78C110.961 36.284 111.105 36.872 111.105 37.544ZM109.005 37.004C109.005 36.652 108.885 36.372 108.645 36.164C108.405 35.956 108.105 35.852 107.745 35.852C107.401 35.852 107.109 35.952 106.869 36.152C106.637 36.352 106.493 36.636 106.437 37.004H109.005ZM114.839 35.42C115.079 35.052 115.379 34.764 115.739 34.556C116.099 34.34 116.499 34.232 116.939 34.232V36.404H116.375C115.863 36.404 115.479 36.516 115.223 36.74C114.967 36.956 114.839 37.34 114.839 37.892V41H112.787V34.304H114.839V35.42Z" fill="#DF171F"/>
</svg>
