<svg width="33" height="47" viewBox="0 0 33 47" fill="none" xmlns="http://www.w3.org/2000/svg">
<path d="M12.7766 13.8898C12.7766 11.8863 14.4234 11.1137 17.062 11.1137C20.9047 11.1137 25.7833 12.3086 29.626 14.4109V2.34492C25.438 0.646875 21.2589 0 17.0708 0C6.82656 0 0 5.42656 0 14.5008C0 28.6871 19.1958 26.3871 19.1958 32.5055C19.1958 34.8773 17.1682 35.641 14.3526 35.641C10.1734 35.641 4.7724 33.8891 0.53125 31.5531V43.098C4.89357 45.0077 9.5928 45.998 14.3438 46.009C24.8448 46.009 32.0786 41.427 32.0786 32.209C32.0786 16.9176 12.7766 19.6578 12.7766 13.8898Z" fill="#DF171F"/>
</svg>
